<mxfile host="app.diagrams.net" agent="Mozilla/5.0 (Windows NT 10.0; Win64; x64) AppleWebKit/537.36 (KHTML, like Gecko) Chrome/134.0.0.0 Safari/537.36 Edg/134.0.0.0" version="26.1.0">
  <diagram name="Page-1" id="js7U7kafk7IplGhe1T0i">
    <mxGraphModel dx="1628" dy="820" grid="1" gridSize="10" guides="1" tooltips="1" connect="1" arrows="1" fold="1" page="1" pageScale="1" pageWidth="1200" pageHeight="1920" math="0" shadow="0">
      <root>
        <mxCell id="0" />
        <mxCell id="1" parent="0" />
        <mxCell id="j2Y-IpniyFIQyYTk3NZa-1" value="" style="shape=cylinder3;whiteSpace=wrap;html=1;boundedLbl=1;backgroundOutline=1;size=15;" parent="1" vertex="1">
          <mxGeometry x="50" y="100" width="60" height="80" as="geometry" />
        </mxCell>
        <mxCell id="j2Y-IpniyFIQyYTk3NZa-2" value="" style="shape=image;html=1;verticalAlign=top;verticalLabelPosition=bottom;labelBackgroundColor=#ffffff;imageAspect=0;aspect=fixed;image=https://cdn3.iconfinder.com/data/icons/document-icons-2/30/647714-excel-128.png" parent="1" vertex="1">
          <mxGeometry x="36" y="250" width="88" height="88" as="geometry" />
        </mxCell>
        <mxCell id="j2Y-IpniyFIQyYTk3NZa-3" value="&lt;font style=&quot;font-size: 14px;&quot;&gt;Source Database&lt;/font&gt;" style="text;html=1;align=center;verticalAlign=middle;whiteSpace=wrap;rounded=0;" parent="1" vertex="1">
          <mxGeometry x="17.5" y="60" width="125" height="30" as="geometry" />
        </mxCell>
        <mxCell id="j2Y-IpniyFIQyYTk3NZa-4" value="&lt;font style=&quot;font-size: 14px;&quot;&gt;CSV Data&lt;/font&gt;" style="text;html=1;align=center;verticalAlign=middle;whiteSpace=wrap;rounded=0;" parent="1" vertex="1">
          <mxGeometry x="25" y="220" width="110" height="30" as="geometry" />
        </mxCell>
        <mxCell id="j2Y-IpniyFIQyYTk3NZa-5" value="" style="endArrow=classic;html=1;rounded=0;entryX=0;entryY=0.25;entryDx=0;entryDy=0;" parent="1" source="j2Y-IpniyFIQyYTk3NZa-1" target="j2Y-IpniyFIQyYTk3NZa-7" edge="1">
          <mxGeometry width="50" height="50" relative="1" as="geometry">
            <mxPoint x="400" y="460" as="sourcePoint" />
            <mxPoint x="270" y="220" as="targetPoint" />
          </mxGeometry>
        </mxCell>
        <mxCell id="j2Y-IpniyFIQyYTk3NZa-6" value="" style="endArrow=classic;html=1;rounded=0;" parent="1" target="j2Y-IpniyFIQyYTk3NZa-7" edge="1">
          <mxGeometry width="50" height="50" relative="1" as="geometry">
            <mxPoint x="124" y="290" as="sourcePoint" />
            <mxPoint x="270" y="230" as="targetPoint" />
          </mxGeometry>
        </mxCell>
        <mxCell id="j2Y-IpniyFIQyYTk3NZa-7" value="&lt;font style=&quot;font-size: 14px;&quot;&gt;Extract&lt;/font&gt;" style="rounded=1;whiteSpace=wrap;html=1;" parent="1" vertex="1">
          <mxGeometry x="280" y="190" width="120" height="60" as="geometry" />
        </mxCell>
        <mxCell id="j2Y-IpniyFIQyYTk3NZa-8" value="&lt;font style=&quot;font-size: 14px;&quot;&gt;Transform&lt;/font&gt;" style="rounded=1;whiteSpace=wrap;html=1;" parent="1" vertex="1">
          <mxGeometry x="510" y="190" width="120" height="60" as="geometry" />
        </mxCell>
        <mxCell id="j2Y-IpniyFIQyYTk3NZa-9" value="" style="endArrow=classic;html=1;rounded=0;exitX=1;exitY=0.5;exitDx=0;exitDy=0;entryX=0;entryY=0.5;entryDx=0;entryDy=0;" parent="1" source="j2Y-IpniyFIQyYTk3NZa-7" target="j2Y-IpniyFIQyYTk3NZa-8" edge="1">
          <mxGeometry width="50" height="50" relative="1" as="geometry">
            <mxPoint x="400" y="470" as="sourcePoint" />
            <mxPoint x="450" y="420" as="targetPoint" />
          </mxGeometry>
        </mxCell>
        <mxCell id="j2Y-IpniyFIQyYTk3NZa-15" value="" style="shape=cylinder3;whiteSpace=wrap;html=1;boundedLbl=1;backgroundOutline=1;size=15;" parent="1" vertex="1">
          <mxGeometry x="880" y="180" width="60" height="80" as="geometry" />
        </mxCell>
        <mxCell id="j2Y-IpniyFIQyYTk3NZa-16" value="" style="endArrow=classic;html=1;rounded=0;exitX=1;exitY=0.5;exitDx=0;exitDy=0;entryX=0;entryY=0.5;entryDx=0;entryDy=0;" parent="1" edge="1">
          <mxGeometry width="50" height="50" relative="1" as="geometry">
            <mxPoint x="630" y="220" as="sourcePoint" />
            <mxPoint x="720" y="220" as="targetPoint" />
          </mxGeometry>
        </mxCell>
        <mxCell id="j2Y-IpniyFIQyYTk3NZa-17" value="" style="endArrow=classic;html=1;rounded=0;exitX=1;exitY=0.5;exitDx=0;exitDy=0;entryX=0;entryY=0.5;entryDx=0;entryDy=0;entryPerimeter=0;" parent="1" target="j2Y-IpniyFIQyYTk3NZa-15" edge="1">
          <mxGeometry width="50" height="50" relative="1" as="geometry">
            <mxPoint x="810" y="220" as="sourcePoint" />
            <mxPoint x="450" y="420" as="targetPoint" />
          </mxGeometry>
        </mxCell>
        <mxCell id="j2Y-IpniyFIQyYTk3NZa-25" value="&lt;font style=&quot;font-size: 14px;&quot;&gt;Warehouse Database&lt;/font&gt;" style="text;html=1;align=center;verticalAlign=middle;whiteSpace=wrap;rounded=0;" parent="1" vertex="1">
          <mxGeometry x="835" y="150" width="150" height="30" as="geometry" />
        </mxCell>
        <mxCell id="j2Y-IpniyFIQyYTk3NZa-53" value="" style="shape=cylinder3;whiteSpace=wrap;html=1;boundedLbl=1;backgroundOutline=1;size=15;" parent="1" vertex="1">
          <mxGeometry x="550" y="90" width="60" height="80" as="geometry" />
        </mxCell>
        <mxCell id="j2Y-IpniyFIQyYTk3NZa-54" value="" style="endArrow=classic;html=1;rounded=0;entryX=0;entryY=0;entryDx=0;entryDy=52.5;entryPerimeter=0;" parent="1" target="j2Y-IpniyFIQyYTk3NZa-53" edge="1">
          <mxGeometry width="50" height="50" relative="1" as="geometry">
            <mxPoint x="340" y="190" as="sourcePoint" />
            <mxPoint x="390" y="140" as="targetPoint" />
          </mxGeometry>
        </mxCell>
        <mxCell id="j2Y-IpniyFIQyYTk3NZa-55" value="" style="endArrow=classic;html=1;rounded=0;entryX=0.5;entryY=1;entryDx=0;entryDy=0;entryPerimeter=0;" parent="1" target="j2Y-IpniyFIQyYTk3NZa-53" edge="1">
          <mxGeometry width="50" height="50" relative="1" as="geometry">
            <mxPoint x="570" y="190" as="sourcePoint" />
            <mxPoint x="620" y="140" as="targetPoint" />
          </mxGeometry>
        </mxCell>
        <mxCell id="j2Y-IpniyFIQyYTk3NZa-56" value="&lt;font style=&quot;font-size: 14px;&quot;&gt;Log Database&lt;/font&gt;" style="text;html=1;align=center;verticalAlign=middle;resizable=0;points=[];autosize=1;strokeColor=none;fillColor=none;" parent="1" vertex="1">
          <mxGeometry x="530" y="60" width="110" height="30" as="geometry" />
        </mxCell>
        <mxCell id="-EUCcQbOThU1HB9aQN2q-1" value="&lt;font style=&quot;font-size: 14px;&quot;&gt;Load&lt;/font&gt;" style="rounded=1;whiteSpace=wrap;html=1;" vertex="1" parent="1">
          <mxGeometry x="720" y="190" width="120" height="60" as="geometry" />
        </mxCell>
        <mxCell id="-EUCcQbOThU1HB9aQN2q-2" value="" style="endArrow=classic;html=1;rounded=0;entryX=1;entryY=0;entryDx=0;entryDy=52.5;entryPerimeter=0;exitX=0.5;exitY=0;exitDx=0;exitDy=0;" edge="1" parent="1" source="-EUCcQbOThU1HB9aQN2q-1" target="j2Y-IpniyFIQyYTk3NZa-53">
          <mxGeometry width="50" height="50" relative="1" as="geometry">
            <mxPoint x="350" y="200" as="sourcePoint" />
            <mxPoint x="560" y="153" as="targetPoint" />
          </mxGeometry>
        </mxCell>
        <mxCell id="-EUCcQbOThU1HB9aQN2q-3" value="" style="shape=cylinder3;whiteSpace=wrap;html=1;boundedLbl=1;backgroundOutline=1;size=15;" vertex="1" parent="1">
          <mxGeometry x="82.5" y="450" width="60" height="80" as="geometry" />
        </mxCell>
        <mxCell id="-EUCcQbOThU1HB9aQN2q-4" value="" style="shape=image;html=1;verticalAlign=top;verticalLabelPosition=bottom;labelBackgroundColor=#ffffff;imageAspect=0;aspect=fixed;image=https://cdn3.iconfinder.com/data/icons/document-icons-2/30/647714-excel-128.png" vertex="1" parent="1">
          <mxGeometry x="68.5" y="600" width="88" height="88" as="geometry" />
        </mxCell>
        <mxCell id="-EUCcQbOThU1HB9aQN2q-5" value="&lt;font style=&quot;font-size: 14px;&quot;&gt;Source Database&lt;/font&gt;" style="text;html=1;align=center;verticalAlign=middle;whiteSpace=wrap;rounded=0;" vertex="1" parent="1">
          <mxGeometry x="50" y="410" width="125" height="30" as="geometry" />
        </mxCell>
        <mxCell id="-EUCcQbOThU1HB9aQN2q-6" value="&lt;font style=&quot;font-size: 14px;&quot;&gt;CSV Data&lt;/font&gt;" style="text;html=1;align=center;verticalAlign=middle;whiteSpace=wrap;rounded=0;" vertex="1" parent="1">
          <mxGeometry x="57.5" y="570" width="110" height="30" as="geometry" />
        </mxCell>
        <mxCell id="-EUCcQbOThU1HB9aQN2q-7" value="" style="endArrow=classic;html=1;rounded=0;entryX=0;entryY=0.25;entryDx=0;entryDy=0;" edge="1" parent="1" source="-EUCcQbOThU1HB9aQN2q-3" target="-EUCcQbOThU1HB9aQN2q-9">
          <mxGeometry width="50" height="50" relative="1" as="geometry">
            <mxPoint x="432.5" y="810" as="sourcePoint" />
            <mxPoint x="302.5" y="570" as="targetPoint" />
          </mxGeometry>
        </mxCell>
        <mxCell id="-EUCcQbOThU1HB9aQN2q-8" value="" style="endArrow=classic;html=1;rounded=0;" edge="1" parent="1" target="-EUCcQbOThU1HB9aQN2q-9">
          <mxGeometry width="50" height="50" relative="1" as="geometry">
            <mxPoint x="156.5" y="640" as="sourcePoint" />
            <mxPoint x="302.5" y="580" as="targetPoint" />
          </mxGeometry>
        </mxCell>
        <mxCell id="-EUCcQbOThU1HB9aQN2q-9" value="&lt;font style=&quot;font-size: 14px;&quot;&gt;Extract&lt;/font&gt;" style="rounded=1;whiteSpace=wrap;html=1;" vertex="1" parent="1">
          <mxGeometry x="312.5" y="540" width="120" height="60" as="geometry" />
        </mxCell>
        <mxCell id="-EUCcQbOThU1HB9aQN2q-10" value="&lt;font style=&quot;font-size: 14px;&quot;&gt;Profiling&lt;/font&gt;" style="rounded=1;whiteSpace=wrap;html=1;" vertex="1" parent="1">
          <mxGeometry x="542.5" y="540" width="120" height="60" as="geometry" />
        </mxCell>
        <mxCell id="-EUCcQbOThU1HB9aQN2q-11" value="" style="endArrow=classic;html=1;rounded=0;exitX=1;exitY=0.5;exitDx=0;exitDy=0;entryX=0;entryY=0.5;entryDx=0;entryDy=0;" edge="1" parent="1" source="-EUCcQbOThU1HB9aQN2q-9" target="-EUCcQbOThU1HB9aQN2q-10">
          <mxGeometry width="50" height="50" relative="1" as="geometry">
            <mxPoint x="432.5" y="820" as="sourcePoint" />
            <mxPoint x="482.5" y="770" as="targetPoint" />
          </mxGeometry>
        </mxCell>
        <mxCell id="-EUCcQbOThU1HB9aQN2q-13" value="" style="endArrow=classic;html=1;rounded=0;exitX=1;exitY=0.5;exitDx=0;exitDy=0;" edge="1" parent="1" target="-EUCcQbOThU1HB9aQN2q-22">
          <mxGeometry width="50" height="50" relative="1" as="geometry">
            <mxPoint x="662.5" y="570" as="sourcePoint" />
            <mxPoint x="752.5" y="570" as="targetPoint" />
          </mxGeometry>
        </mxCell>
        <mxCell id="-EUCcQbOThU1HB9aQN2q-15" value="&lt;font style=&quot;font-size: 14px;&quot;&gt;Profiling Result&lt;/font&gt;" style="text;html=1;align=center;verticalAlign=middle;whiteSpace=wrap;rounded=0;" vertex="1" parent="1">
          <mxGeometry x="720" y="500" width="150" height="30" as="geometry" />
        </mxCell>
        <mxCell id="-EUCcQbOThU1HB9aQN2q-22" value="" style="dashed=0;outlineConnect=0;html=1;align=center;labelPosition=center;verticalLabelPosition=bottom;verticalAlign=top;shape=mxgraph.weblogos.json" vertex="1" parent="1">
          <mxGeometry x="760" y="532.1" width="70" height="75.8" as="geometry" />
        </mxCell>
      </root>
    </mxGraphModel>
  </diagram>
</mxfile>
